# xmcd
#
# Track frame offsets: 
#        150
#        11684
#        24090
#        36801
#        51022
#        62859
#        74737
#        87453
#        99207
#        107494
#        121667
#        136038
#        145350
#        161495
#        174159
#        187169
#        199837
#        212268
#        220550
#        235334
#        250320
#        258567
#        262656
#        271771
#        285380
#        297566
#
# Disc length: 4036 seconds
#
# Revision: 0
# Processed by: cddbd v1.5.1PL0 Copyright (c) Steve Scherf et al.
# Submitted via: ExactAudioCopy v0.95b2
#
DISCID=6f0fc21a
DTITLE=Merle Haggard and the Strangers - Someday We'll Look Back and I L
DTITLE=ove Dixie Blues
DYEAR=2004
DGENRE=Country
TTITLE0=Someday We'll Look Back
TTITLE1=Train of Life
TTITLE2=One Sweet Hello
TTITLE3=One Row at a Time
TTITLE4=Big Time Annie's Square
TTITLE5=I'd Rather Be Gone
TTITLE6=California Cottonfields
TTITLE7=Carolyn
TTITLE8=Tulare Dust
TTITLE9=Huntsville
TTITLE10=The Only Trouble With Me
TTITLE11=Hammin' it Up
TTITLE12=Everybody's Had The Blues
TTITLE13=Big Bad Bill (Is Sweet William Now)
TTITLE14=I Forgot You Every Day
TTITLE15=I Ain't Got Nobody (And Nobody Cares for Me)
TTITLE16=Carolyn
TTITLE17=Champagne
TTITLE18=Lovesick Blues
TTITLE19=The Emptiest Arms In The World
TTITLE20=Nobody Knows I'm Hurtin'
TTITLE21=Into To Way Down Yonder in New Orleans
TTITLE22=Way Down Yonder in New Orleans
TTITLE23=Okie from Muskogee
TTITLE24=I Wonder If They Ever Think Of Me
TTITLE25=Finale
EXTD=
EXTT0=
EXTT1=
EXTT2=
EXTT3=
EXTT4=
EXTT5=
EXTT6=
EXTT7=
EXTT8=
EXTT9=
EXTT10=
EXTT11=
EXTT12=
EXTT13=
EXTT14=
EXTT15=
EXTT16=
EXTT17=
EXTT18=
EXTT19=
EXTT20=
EXTT21=
EXTT22=
EXTT23=
EXTT24=
EXTT25=
PLAYORDER=
